<svg width="190" height="56" viewBox="0 0 190 56" fill="none" xmlns="http://www.w3.org/2000/svg">
  <style>
    @keyframes draw {
      to {
        stroke-dashoffset: 0;
      }
    }
    path {
      stroke: white;
      stroke-dasharray: 1000;
      stroke-dashoffset: 1000;
      animation: draw 5s linear forwards;
    }
  </style>
  <path d="M15 23.5L11 25L8.5 26.5L6 29L4 31.5L2.5 34L1 36.5V39V42L1.5 45L2.5 47.5L4.5 49.5L6 51L8.5 52.5L11 54L13 54.5L15 55H17H19.5H22H24.5L27.5 54.5L30 54L33 53.5L35.5 52.5L39 51L41.5 49.5L43 48.5L45 47L46 45.5L47 44L48 42.5L49 41.5V39.5L49.5 38V36.5L49 34L47.5 31L46 29L45 27.5L43 26.5L41 25.5L39 24.5L37 23.5L35.5 22.5L33 21.5L31 20.5L29 19.5L27.5 18.5L26.5 17L25.5 15L24.5 13V11L25 9.5L25.5 8L26.5 6.5L27.5 5.5L29 4.5L31 3.5L33 2.5L35.5 2L38 1H40.5L43 0.5H45L47 1L49.5 1.5L52.5 2.5L54 3.5L55 5L55.5 7L55 9L53.5 10.5L52.5 11L50.5 12.5L49 13L47.5 13.5L46 14L45 14.5" stroke="black"/>
  <path d="M81.5 25L81 23.5L80 22.5L79.5 21.5L77.5 20.5H75.5L73.5 21.5L71.5 23L70 24.5L68.5 26L67 27.5L65.5 29L64.5 30.5L63 32L62.5 33.5L61.5 35.5L60.5 37L59.5 38.5L59 40.5L58.5 43V45L59.5 45.5L60.5 46.5H61.5L63 45.5H64.5L66 44.5L67.5 43L69 41.5L71 40L72 38.5L73.5 37L74.5 36L75.5 35L76.5 33.5L77.5 33L78.5 31.5L79.5 30.5V32L78 33.5L77.5 35.5L77 38L76.5 40V42V43.5H78L79.5 43L81.5 42L83.5 40L85 38.5L86 38L86.5 37L87 36" stroke="black"/>
  <path d="M109 9L107.5 10.5L106 12.5L104.5 15.5L102.5 19.5L99.5 23.5L96.5 28.5L94 33L91.5 38L90 41V44.5L91.5 46.5H94L97 45.5L98.5 44.5L100.5 44L101.5 42.5L104 41L106 39.5L110.5 34L115.5 26L116 23.5L113 31L111.5 34L108 38L106 41.5V44.5L107.5 45.5L110.5 44.5L113.5 42.5L116.5 40L119.5 37.5L123 34L125.5 31L123.5 36.5L122.5 41V44H124.5L128.5 41.5L133.5 35.5L138.5 29.5L140.5 26.5L143 22L146 16L143 17.5L141.5 20L140.5 23.5L144 26L150.5 25H153L148 34.5L146 39L145 42.5V44.5L148 45.5L151.5 43L155 40.5L157 39L158 37L159 35.5" stroke="black"/>
  <path d="M95 22.5H100H110.5" stroke="black"/>
  <path d="M158 47L169.5 24L169 20.5L164.5 36L176 27.5L179.5 25L182.5 24L175.5 38.5L174.5 41.5V44.5L176.5 45.5L179 44.5L182 43L184 41L186.5 38.5L188 37L189 36" stroke="black"/>
</svg>
